<svg xmlns="http://www.w3.org/2000/svg" viewBox="0 0 1200 800" width="1200" height="800">
  <rect width="1200" height="800" fill="#F7F3EC"/>
  <rect x="200" y="240" width="220" height="460" fill="#4A433C" rx="4"/>
  <rect x="460" y="160" width="280" height="540" fill="#1E1A16" rx="4"/>
  <rect x="780" y="320" width="220" height="380" fill="#6B6258" rx="4"/>
  <!-- Windows -->
  <g fill="#FCE8A6" opacity="0.6">
    <rect x="500" y="200" width="40" height="50" rx="2"/>
    <rect x="580" y="200" width="40" height="50" rx="2"/>
    <rect x="660" y="200" width="40" height="50" rx="2"/>
    <rect x="500" y="280" width="40" height="50" rx="2"/>
    <rect x="580" y="280" width="40" height="50" rx="2"/>
    <rect x="660" y="280" width="40" height="50" rx="2"/>
    <rect x="500" y="360" width="40" height="50" rx="2"/>
    <rect x="580" y="360" width="40" height="50" rx="2"/>
    <rect x="660" y="360" width="40" height="50" rx="2"/>
  </g>
</svg>
